PathFileType	4	(X/Y/Z)	/Users/itak/Documents/Research/Walk-IL/dataset/trc/00316_00010.trc
DataRate	CameraRate	NumFrames	NumMarkers	Units	OrigDataRate	OrigDataStartFrame	OrigNumFrames
100.000000	100.000000	4	53	mm	100.000000	271	542
Frame#	Time	RPSI			LPSI			L3			STRN			T10			C7			CLAV			RBAK			LBAK			LSHO			LUPA			LAEL			LAOL			LWTS			LWPS			LFRA			LIFD			LHPS			LHTS			RSHO			RUPA			RAEL			RAOL			RWTS			RWPS			RFRA			RIFD			RHTS			RHPS			RBHD			LFHD			RFHD			LBHD			LHIP			RHIP			RASI			LASI			LKNE			LTHI			LANK			LTIP			LTOE			LMT1			LMT5			LHEE			RKNE			RTHI			RANK			RTIP			RTOE			RMT1			RMT5			RHEE			
		X1	Y1	Z1	X2	Y2	Z2	X3	Y3	Z3	X4	Y4	Z4	X5	Y5	Z5	X6	Y6	Z6	X7	Y7	Z7	X8	Y8	Z8	X9	Y9	Z9	X10	Y10	Z10	X11	Y11	Z11	X12	Y12	Z12	X13	Y13	Z13	X14	Y14	Z14	X15	Y15	Z15	X16	Y16	Z16	X17	Y17	Z17	X18	Y18	Z18	X19	Y19	Z19	X20	Y20	Z20	X21	Y21	Z21	X22	Y22	Z22	X23	Y23	Z23	X24	Y24	Z24	X25	Y25	Z25	X26	Y26	Z26	X27	Y27	Z27	X28	Y28	Z28	X29	Y29	Z29	X30	Y30	Z30	X31	Y31	Z31	X32	Y32	Z32	X33	Y33	Z33	X34	Y34	Z34	X35	Y35	Z35	X36	Y36	Z36	X37	Y37	Z37	X38	Y38	Z38	X39	Y39	Z39	X40	Y40	Z40	X41	Y41	Z41	X42	Y42	Z42	X43	Y43	Z43	X44	Y44	Z44	X45	Y45	Z45	X46	Y46	Z46	X47	Y47	Z47	X48	Y48	Z48	X49	Y49	Z49	X50	Y50	Z50	X51	Y51	Z51	X52	Y52	Z52	X53	Y53	Z53	

272	2.71	143.9523468017578	972.2164306640625	-158.1213226318359	304.3014526367188	957.4368896484375	-232.2162017822266	220.90234375	1037.397338867188	-180.6649322509766	345.5397033691406	1222.756958007812	28.09560203552246	199.2601928710938	1152.342041015625	-195.5247344970703	228.1259460449219	1397.594604492188	-169.3882141113281	313.2813415527344	1322.193115234375	-30.1788444519043	135.3857727050781	1259.9169921875	-169.8296051025391	308.7401123046875	1363.484619140625	-237.3808898925781	403.17578125	1377.010131835938	-190.247314453125	437.6438293457031	1277.415161132812	-277.024658203125	413.6903381347656	1083.896728515625	-334.9295349121094	327.3708190917969	1084.338745117188	-331.9403381347656	386.6392211914062	840.55078125	-317.2575073242188	408.6558227539062	846.2020263671875	-386.0433959960938	411.47119140625	981.5465087890625	-362.5322875976562	339.3076171875	671.7969970703125	-379.4953002929688	384.5688171386719	764.1174926757812	-410.7216796875	387.1979064941406	742.1763916015625	-348.2515258789062	132.8749084472656	1376.050170898438	-23.65268898010254	78.10321807861328	1316.061645507812	15.31739902496338	75.89832305908203	1051.237060546875	97.85319519042969	105.9211196899414	1032.438842773438	10.28598690032959	305.7980041503906	971.70947265625	149.2316589355469	255.2099304199219	924.2788696289062	197.9559478759766	125.218994140625	1010.078063964844	137.6220703125	446.5520935058594	857.7459106445312	196.8744201660156	398.1573791503906	916.380859375	203.718994140625	351.2123413085938	871.4173583984375	229.8532257080078	188.8783874511719	1554.045043945312	-117.8149948120117	359.5125732421875	1581.826782226562	7.100424289703369	273.19873046875	1575.210205078125	37.7744255065918	327.5094299316406	1554.8994140625	-164.6706237792969	419.4567260742188	913.3511962890625	-206.5013275146484	93.83062744140625	922.6411743164062	-21.27320289611816	207.0980224609375	921.8148193359375	59.28983688354492	430.9718627929688	927.3247680664062	-61.47749710083008	509.27978515625	491.74951171875	3.237037420272827	499.4982604980469	615.9805297851562	-68.43697357177734	586.51220703125	53.13690567016602	90.64707183837891	557.1339721679688	272.9833679199219	39.94949722290039	561.58349609375	125.0294799804688	287.8711853027344	516.3016967773438	79.91043090820312	239.9639434814453	620.0806274414062	94.32269287109375	201.1079559326172	521.8283081054688	28.93253326416016	60.99374389648438	139.6331176757812	453.9362182617188	-99.74939727783203	124.6046905517578	704.3268432617188	-2.658668756484985	95.63571929931641	46.66210556030273	-280.2030639648438	155.6747894287109	331.6004638671875	-138.0171203613281	285.3367919921875	38.97573471069336	-209.8666229248047	259.3181457519531	38.73106002807617	-274.7013549804688	167.4556884765625	35.75122451782227	-201.1223297119141	82.07807922363281	53.46474456787109	-350.5534057617188	
273	2.72	151.2640228271484	970.4989013671875	-151.8688354492188	312.4694213867188	955.0715942382812	-224.3644714355469	227.88525390625	1035.295532226562	-173.5911712646484	351.2369995117188	1220.737060546875	35.51171493530273	206.0407257080078	1150.082397460938	-188.6521453857422	234.6706085205078	1395.432739257812	-162.6114044189453	319.3667297363281	1320.08984375	-22.96173286437988	142.0199737548828	1257.818481445312	-163.3864440917969	315.5230712890625	1361.116943359375	-230.2732696533203	409.7524719238281	1374.690063476562	-182.8600921630859	443.9732360839844	1275.318969726562	-269.8051147460938	419.8585205078125	1082.263793945312	-328.5138549804688	333.6015014648438	1082.388305664062	-325.05029296875	393.6691589355469	838.796875	-312.0901184082031	415.1494445800781	844.9345703125	-381.0471496582031	417.7818603515625	980.0652465820312	-356.7591857910156	346.510498046875	670.2430419921875	-375.0289306640625	391.1915283203125	762.923095703125	-406.0283203125	394.3594665527344	740.6260375976562	-343.6790466308594	138.9488067626953	1373.998291015625	-17.15904998779297	83.88539123535156	1313.974487304688	21.53500556945801	80.66239929199219	1048.897827148438	103.5341033935547	111.0893020629883	1030.255493164062	15.99214553833008	312.5189514160156	976.0987548828125	154.8358154296875	263.6679382324219	927.3729858398438	203.9677886962891	130.9533538818359	1009.152099609375	143.5674438476562	457.2156982421875	867.0962524414062	201.9135284423828	406.8059692382812	923.9972534179688	208.9583892822266	361.56591796875	877.5020751953125	235.495849609375	195.42919921875	1552.074462890625	-111.27490234375	365.2241516113281	1579.750122070312	14.6774730682373	278.7042846679688	1573.126708984375	44.82197570800781	334.2674255371094	1552.96142578125	-157.2736663818359	427.1607971191406	910.70458984375	-197.2772979736328	99.53975677490234	921.3433227539062	-15.46562099456787	211.6990661621094	920.08837890625	66.49113464355469	436.9541015625	925.1078491210938	-52.214111328125	514.1297607421875	489.6370239257812	13.25634765625	505.0041809082031	613.0870361328125	-58.87166213989258	590.8384399414062	52.312744140625	105.3313522338867	561.5516967773438	271.4574890136719	52.35403060913086	565.0805053710938	125.777702331543	301.8804626464844	520.167724609375	80.19189453125	254.147705078125	624.0939331054688	94.60380554199219	215.5553588867188	526.2988891601562	27.81267738342285	75.54710388183594	142.0535736083984	453.3249816894531	-96.12856292724609	128.4989013671875	703.0819702148438	2.652851104736328	96.00587463378906	47.67324829101562	-280.1732482910156	157.2879943847656	331.1761169433594	-135.3520812988281	285.3871154785156	39.01304626464844	-209.6886901855469	259.4121398925781	38.88558578491211	-274.6424560546875	167.4797973632812	36.00143051147461	-201.0253753662109	82.38797760009766	55.30986404418945	-350.5033264160156	
274	2.73	158.5982208251953	968.8786010742188	-145.3907928466797	320.5593872070312	952.891845703125	-216.363037109375	234.9522247314453	1033.254516601562	-166.2887573242188	356.931396484375	1218.779418945312	43.07726287841797	212.9344940185547	1147.811157226562	-181.5913543701172	241.3119201660156	1393.303100585938	-155.8249664306641	325.505615234375	1318.060668945312	-15.62691211700439	148.7627868652344	1255.72314453125	-156.8612670898438	322.4244689941406	1358.725708007812	-223.1088104248047	416.4285888671875	1372.362426757812	-175.3837585449219	450.4800415039062	1273.107788085938	-262.3854370117188	426.2961120605469	1080.46435546875	-321.7159118652344	340.1154479980469	1080.220336914062	-317.820556640625	400.98095703125	836.8977661132812	-306.5459289550781	421.963623046875	843.53759765625	-375.6568603515625	424.38671875	978.4252319335938	-350.5907897949219	354.3155212402344	668.5082397460938	-370.2352600097656	398.2790832519531	761.585693359375	-400.956298828125	401.9638061523438	738.9425659179688	-338.7380065917969	145.0804901123047	1372.06103515625	-10.66474437713623	89.71038818359375	1311.9990234375	27.75607299804688	85.52602386474609	1046.713256835938	109.2663726806641	116.4131317138672	1028.18115234375	21.70749282836914	318.9892578125	980.1842041015625	160.501953125	271.7718811035156	930.3062744140625	209.9977874755859	136.6600799560547	1008.292785644531	149.5100555419922	467.2035522460938	875.8994750976562	206.9212951660156	414.9547119140625	931.1161499023438	214.1990814208984	371.2735595703125	883.2274780273438	241.0839385986328	201.9993743896484	1550.185180664062	-104.711555480957	370.9891967773438	1577.75146484375	22.24413871765137	284.2706298828125	1571.121826171875	51.87475204467773	341.03564453125	1551.109619140625	-149.8802032470703	434.8560180664062	908.2333374023438	-187.8800659179688	105.2667465209961	920.0548095703125	-9.487476348876953	216.3798522949219	918.3638305664062	73.89163208007812	442.9478149414062	922.8966674804688	-42.76287841796875	519.043701171875	487.8676452636719	23.7507266998291	510.4577941894531	610.544677734375	-48.82807159423828	594.1597290039062	51.06571578979492	117.3313446044922	565.5204467773438	269.7506713867188	63.85158157348633	567.46533203125	124.2355117797852	313.7210998535156	522.7990112304688	78.78733062744141	265.7456970214844	626.9242553710938	93.15601348876953	227.7230529785156	529.7176513671875	26.79873275756836	87.17687225341797	144.7310180664062	452.6963500976562	-92.19271850585938	132.5552520751953	701.8262939453125	8.176457405090332	96.37265777587891	48.87972259521484	-280.0021362304688	159.1623840332031	330.7693481445312	-132.4231872558594	285.4477844238281	39.05479431152344	-209.497314453125	259.5066833496094	39.07151412963867	-274.5574951171875	167.5465545654297	36.26675796508789	-200.8625946044922	82.68079376220703	57.40523147583008	-350.3059387207031	
275	2.74	165.9140167236328	967.3875732421875	-138.6275939941406	328.571044921875	950.9681396484375	-208.1668395996094	242.0821838378906	1031.308227539062	-158.7188415527344	362.6196899414062	1216.929321289062	50.80243682861328	219.9291076660156	1145.5615234375	-174.3214111328125	248.048828125	1391.2421875	-149.0280151367188	331.6876831054688	1316.148193359375	-8.171338081359863	155.6089019775391	1253.654907226562	-150.2464447021484	329.44482421875	1356.348999023438	-215.8785095214844	423.2077941894531	1370.067504882812	-167.81298828125	457.1744079589844	1270.814697265625	-254.7512817382812	433.0149536132812	1078.52783203125	-314.5257568359375	346.9146118164062	1077.867309570312	-310.2406921386719	408.5874328613281	834.8840942382812	-300.6016235351562	429.1014404296875	842.03466796875	-369.8480834960938	431.293701171875	976.654052734375	-344.0097961425781	362.6782836914062	666.6340942382812	-365.1022644042969	405.805908203125	760.13525390625	-395.4869689941406	409.98681640625	737.1539916992188	-333.4161987304688	151.2451019287109	1370.2783203125	-4.182295322418213	95.566162109375	1310.173583984375	33.9715690612793	90.50104522705078	1044.73046875	115.0468978881836	121.9026260375977	1026.253295898438	27.50827980041504	325.2173461914062	983.9276123046875	166.2577056884766	279.4855346679688	933.0437622070312	216.0703125	142.3209991455078	1007.520446777344	155.45703125	476.512451171875	884.0237426757812	211.9503479003906	422.6370544433594	937.6494750976562	219.4905395507812	380.3319091796875	888.5211791992188	246.6756896972656	208.5629577636719	1548.411865234375	-98.14558410644531	376.7947692871094	1575.87451171875	29.79827690124512	289.88671875	1569.235595703125	58.92308807373047	347.8190612792969	1549.3837890625	-142.4964752197266	442.5055541992188	906.0330200195312	-178.3395538330078	111.0268096923828	918.7705688476562	-3.264960050582886	221.1907348632812	916.6491088867188	81.50851440429688	448.9716796875	920.7613525390625	-33.14471817016602	524.0166015625	486.5027465820312	34.68745803833008	515.8734130859375	608.4810180664062	-38.30635833740234	596.6312866210938	49.49408721923828	126.8537368774414	569.0950927734375	267.9291687011719	74.48753356933594	568.7081909179688	120.4332962036133	323.6036987304688	524.21826171875	75.74735260009766	274.9169006347656	628.6149291992188	90.03495788574219	237.8545379638672	532.2671508789062	26.0028247833252	96.05582427978516	147.7018890380859	452.0600891113281	-87.94134521484375	136.7988128662109	700.5671997070312	13.93004608154297	96.73295593261719	50.30158615112305	-279.6853332519531	161.3148956298828	330.3955993652344	-129.2303924560547	285.5240478515625	39.09423065185547	-209.2969207763672	259.6087036132812	39.29862213134766	-274.4371032714844	167.6571197509766	36.55008697509766	-200.6282501220703	82.97354125976562	59.78152084350586	-349.9479064941406	
